<?xml version="1.0" standalone="no"?>
<!DOCTYPE svg PUBLIC "-//W3C//DTD SVG 20010904//EN"
 "http://www.w3.org/TR/2001/REC-SVG-20010904/DTD/svg10.dtd">
<svg version="1.0" xmlns="http://www.w3.org/2000/svg"
 width="5217.000000pt" height="951.000000pt" viewBox="0 0 5217.000000 951.000000"
 preserveAspectRatio="xMidYMid meet">

<g transform="translate(0.000000,951.000000) scale(0.100000,-0.100000)"
fill="#f00946" stroke="none">
<path d="M43770 4003 c-25 -31 -81 -100 -125 -154 -146 -177 -360 -441 -385
-474 -23 -29 -248 -310 -371 -463 l-50 -62 -42 52 c-24 29 -90 115 -147 191
-58 76 -149 195 -203 265 -53 70 -120 157 -148 195 -29 37 -57 67 -63 67 -6 0
-57 -64 -113 -143 -56 -78 -177 -245 -268 -372 -91 -126 -225 -313 -297 -415
-73 -102 -193 -270 -267 -375 -74 -104 -154 -216 -177 -247 l-42 -58 -118 143
c-65 78 -145 175 -178 216 l-60 74 -20 -25 c-12 -14 -48 -58 -81 -98 -33 -40
-78 -94 -100 -120 -45 -53 -281 -339 -343 -415 -22 -27 -97 -120 -167 -205
-101 -124 -544 -676 -769 -960 -25 -30 -42 -57 -39 -60 3 -3 30 22 61 55 236
253 950 1048 1321 1472 l133 153 77 -98 c42 -53 123 -157 180 -229 58 -73 107
-133 110 -133 7 1 559 770 912 1272 134 191 247 346 251 345 4 -1 87 -101 185
-222 315 -390 408 -503 414 -499 4 2 42 52 85 111 583 804 914 1274 897 1272
-4 0 -28 -25 -53 -56z"/>
<path d="M43894 3832 c-82 -116 -625 -905 -834 -1211 l-214 -315 -23 30 c-12
16 -140 193 -284 394 -144 201 -269 373 -278 382 -15 16 -24 6 -128 -145 -61
-89 -191 -277 -289 -417 -97 -140 -309 -447 -470 -682 l-292 -428 -95 133
c-115 160 -276 371 -286 375 -19 7 -935 -1078 -1421 -1686 l-145 -181 -19352
-1 -19353 0 0 -34 0 -34 22694 -3 c12481 -3 23621 -3 24755 0 l2061 3 0 34 0
34 -1738 0 -1739 0 -240 363 c-132 199 -328 497 -435 662 -653 1005 -783 1204
-1298 1975 -425 636 -539 804 -548 807 -4 1 -25 -24 -48 -55z"/>
<path d="M51440 1122 c0 -10 -4 -22 -9 -27 -5 -6 -19 -39 -31 -75 -12 -36 -28
-78 -35 -95 -7 -16 -21 -52 -30 -80 -9 -27 -22 -63 -30 -80 -7 -16 -21 -52
-30 -80 -9 -27 -24 -68 -34 -90 -10 -22 -23 -60 -31 -85 -7 -25 -17 -49 -22
-54 -4 -6 -8 -20 -8 -32 0 -17 12 -26 63 -43 34 -13 76 -28 92 -35 17 -8 172
-66 345 -131 173 -65 319 -122 324 -127 6 -4 -261 -8 -592 -8 l-602 0 0 -35 0
-35 615 0 615 0 0 31 c0 31 1 31 38 24 20 -4 42 -11 49 -17 7 -5 17 -8 22 -6
6 1 -22 53 -62 113 -40 61 -115 177 -167 258 -52 82 -119 185 -149 230 -29 45
-114 175 -188 290 -75 114 -137 207 -139 207 -2 0 -4 -8 -4 -18z"/>
<path d="M50360 45 l0 -35 130 0 130 0 0 35 0 35 -130 0 -130 0 0 -35z"/>
</g>
</svg>
